<?xml version="1.0" encoding="UTF-8" standalone="no"?>
<!DOCTYPE svg PUBLIC "-//W3C//DTD SVG 1.1//EN"
 "http://www.w3.org/Graphics/SVG/1.1/DTD/svg11.dtd">
<!-- Generated by graphviz version 2.26.3 (20100126.1600)
 -->
<!-- Title: controllers_diagram Pages: 1 -->
<svg width="568pt" height="397pt"
 viewBox="0.00 0.00 568.00 397.00" xmlns="http://www.w3.org/2000/svg" xmlns:xlink="http://www.w3.org/1999/xlink">
<g id="graph1" class="graph" transform="scale(1 1) rotate(0) translate(4 393)">
<title>controllers_diagram</title>
<polygon fill="none" stroke="none" points="-4,5 -4,-393 565,-393 565,5 -4,5"/>
<!-- _diagram_info -->
<g id="node1" class="node"><title>_diagram_info</title>
<text text-anchor="start" x="317" y="-78.3" font-family="Times Roman,serif" font-size="13.00">Controllers diagram</text>
<text text-anchor="start" x="317" y="-61.3" font-family="Times Roman,serif" font-size="13.00">Date: Oct 14 2015 &#45; 17:49</text>
<text text-anchor="start" x="317" y="-44.3" font-family="Times Roman,serif" font-size="13.00">Migration version: 20150729232909</text>
<text text-anchor="start" x="317" y="-27.3" font-family="Times Roman,serif" font-size="13.00">Generated by RailRoady 1.3.1</text>
<text text-anchor="start" x="317" y="-10.3" font-family="Times Roman,serif" font-size="13.00">http://railroady.prestonlee.com</text>
</g>
<!-- Api::V1::LanguagesController -->
<g id="node2" class="node"><title>Api::V1::LanguagesController</title>
<polyline fill="none" stroke="black" points="321,-133.5 515,-133.5 "/>
<path fill="none" stroke="black" d="M515,-133.5C521,-133.5 527,-139.5 527,-145.5"/>
<polyline fill="none" stroke="black" points="527,-145.5 527,-223.5 "/>
<path fill="none" stroke="black" d="M527,-223.5C527,-229.5 521,-235.5 515,-235.5"/>
<polyline fill="none" stroke="black" points="515,-235.5 321,-235.5 "/>
<path fill="none" stroke="black" d="M321,-235.5C315,-235.5 309,-229.5 309,-223.5"/>
<polyline fill="none" stroke="black" points="309,-223.5 309,-145.5 "/>
<path fill="none" stroke="black" d="M309,-145.5C309,-139.5 315,-133.5 321,-133.5"/>
<text text-anchor="middle" x="418" y="-218.9" font-family="Times Roman,serif" font-size="14.00">Api::V1::LanguagesController</text>
<polyline fill="none" stroke="black" points="309,-209.5 527,-209.5 "/>
<text text-anchor="start" x="317" y="-192.9" font-family="Times Roman,serif" font-size="14.00">classify</text>
<polyline fill="none" stroke="black" points="309,-183.5 527,-183.5 "/>
<polyline fill="none" stroke="black" points="309,-159.5 527,-159.5 "/>
<text text-anchor="start" x="317" y="-142.9" font-family="Times Roman,serif" font-size="14.00">_layout</text>
</g>
<!-- Api::V1::BaseApiController -->
<g id="node3" class="node"><title>Api::V1::BaseApiController</title>
<polyline fill="none" stroke="black" points="13,-1.5 261,-1.5 "/>
<path fill="none" stroke="black" d="M261,-1.5C267,-1.5 273,-7.5 273,-13.5"/>
<polyline fill="none" stroke="black" points="273,-13.5 273,-269.5 "/>
<path fill="none" stroke="black" d="M273,-269.5C273,-275.5 267,-281.5 261,-281.5"/>
<polyline fill="none" stroke="black" points="261,-281.5 13,-281.5 "/>
<path fill="none" stroke="black" d="M13,-281.5C7,-281.5 1,-275.5 1,-269.5"/>
<polyline fill="none" stroke="black" points="1,-269.5 1,-13.5 "/>
<path fill="none" stroke="black" d="M1,-13.5C1,-7.5 7,-1.5 13,-1.5"/>
<text text-anchor="middle" x="137" y="-264.9" font-family="Times Roman,serif" font-size="14.00">Api::V1::BaseApiController</text>
<polyline fill="none" stroke="black" points="1,-255.5 273,-255.5 "/>
<polyline fill="none" stroke="black" points="1,-231.5 273,-231.5 "/>
<polyline fill="none" stroke="black" points="1,-207.5 273,-207.5 "/>
<text text-anchor="start" x="9" y="-190.9" font-family="Times Roman,serif" font-size="14.00">_layout</text>
<text text-anchor="start" x="9" y="-172.9" font-family="Times Roman,serif" font-size="14.00">authenticate_from_token!</text>
<text text-anchor="start" x="9" y="-154.9" font-family="Times Roman,serif" font-size="14.00">get_params</text>
<text text-anchor="start" x="9" y="-136.9" font-family="Times Roman,serif" font-size="14.00">remove_empty_params_and_headers</text>
<text text-anchor="start" x="9" y="-118.9" font-family="Times Roman,serif" font-size="14.00">render_error</text>
<text text-anchor="start" x="9" y="-100.9" font-family="Times Roman,serif" font-size="14.00">render_parameters_missing</text>
<text text-anchor="start" x="9" y="-82.9" font-family="Times Roman,serif" font-size="14.00">render_success</text>
<text text-anchor="start" x="9" y="-64.9" font-family="Times Roman,serif" font-size="14.00">render_unauthorized</text>
<text text-anchor="start" x="9" y="-46.9" font-family="Times Roman,serif" font-size="14.00">set_custom_response_headers</text>
<text text-anchor="start" x="9" y="-28.9" font-family="Times Roman,serif" font-size="14.00">verify_payload!</text>
<text text-anchor="start" x="9" y="-10.9" font-family="Times Roman,serif" font-size="14.00">verify_signature</text>
</g>
<!-- ApplicationController -->
<g id="node4" class="node"><title>ApplicationController</title>
<polyline fill="none" stroke="black" points="321,-287.5 458,-287.5 "/>
<path fill="none" stroke="black" d="M458,-287.5C464,-287.5 470,-293.5 470,-299.5"/>
<polyline fill="none" stroke="black" points="470,-299.5 470,-375.5 "/>
<path fill="none" stroke="black" d="M470,-375.5C470,-381.5 464,-387.5 458,-387.5"/>
<polyline fill="none" stroke="black" points="458,-387.5 321,-387.5 "/>
<path fill="none" stroke="black" d="M321,-387.5C315,-387.5 309,-381.5 309,-375.5"/>
<polyline fill="none" stroke="black" points="309,-375.5 309,-299.5 "/>
<path fill="none" stroke="black" d="M309,-299.5C309,-293.5 315,-287.5 321,-287.5"/>
<text text-anchor="middle" x="389.5" y="-370.9" font-family="Times Roman,serif" font-size="14.00">ApplicationController</text>
<polyline fill="none" stroke="black" points="309,-361.5 470,-361.5 "/>
<polyline fill="none" stroke="black" points="309,-337.5 470,-337.5 "/>
<polyline fill="none" stroke="black" points="309,-313.5 470,-313.5 "/>
<text text-anchor="start" x="317" y="-296.9" font-family="Times Roman,serif" font-size="14.00">_layout</text>
</g>
</g>
</svg>
