<?xml version="1.0" encoding="UTF-8" standalone="no"?>
<!DOCTYPE svg PUBLIC "-//W3C//DTD SVG 1.1//EN"
 "http://www.w3.org/Graphics/SVG/1.1/DTD/svg11.dtd">
<!-- Generated by graphviz version 2.26.3 (20100126.1600)
 -->
<!-- Title: models_diagram Pages: 1 -->
<svg width="440pt" height="134pt"
 viewBox="0.00 0.00 440.00 134.00" xmlns="http://www.w3.org/2000/svg" xmlns:xlink="http://www.w3.org/1999/xlink">
<g id="graph1" class="graph" transform="scale(1 1) rotate(0) translate(4 130)">
<title>models_diagram</title>
<polygon fill="none" stroke="none" points="-4,5 -4,-130 437,-130 437,5 -4,5"/>
<!-- _diagram_info -->
<g id="node1" class="node"><title>_diagram_info</title>
<text text-anchor="start" x="8" y="-93.8" font-family="Times Roman,serif" font-size="13.00">Models diagram</text>
<text text-anchor="start" x="8" y="-76.8" font-family="Times Roman,serif" font-size="13.00">Date: Oct 14 2015 &#45; 17:49</text>
<text text-anchor="start" x="8" y="-59.8" font-family="Times Roman,serif" font-size="13.00">Migration version: 20150729232909</text>
<text text-anchor="start" x="8" y="-42.8" font-family="Times Roman,serif" font-size="13.00">Generated by RailRoady 1.3.1</text>
<text text-anchor="start" x="8" y="-25.8" font-family="Times Roman,serif" font-size="13.00">http://railroady.prestonlee.com</text>
</g>
<!-- ApiKey -->
<g id="node2" class="node"><title>ApiKey</title>
<polyline fill="none" stroke="black" points="279.5,-1 420.5,-1 "/>
<path fill="none" stroke="black" d="M420.5,-1C426.5,-1 432.5,-7 432.5,-13"/>
<polyline fill="none" stroke="black" points="432.5,-13 432.5,-113 "/>
<path fill="none" stroke="black" d="M432.5,-113C432.5,-119 426.5,-125 420.5,-125"/>
<polyline fill="none" stroke="black" points="420.5,-125 279.5,-125 "/>
<path fill="none" stroke="black" d="M279.5,-125C273.5,-125 267.5,-119 267.5,-113"/>
<polyline fill="none" stroke="black" points="267.5,-113 267.5,-13 "/>
<path fill="none" stroke="black" d="M267.5,-13C267.5,-7 273.5,-1 279.5,-1"/>
<text text-anchor="middle" x="350" y="-108.4" font-family="Times Roman,serif" font-size="14.00">ApiKey</text>
<polyline fill="none" stroke="black" points="267.5,-99 432.5,-99 "/>
<text text-anchor="start" x="275.5" y="-82.4" font-family="Times Roman,serif" font-size="14.00">id :integer</text>
<text text-anchor="start" x="275.5" y="-64.4" font-family="Times Roman,serif" font-size="14.00">access_token :string</text>
<text text-anchor="start" x="275.5" y="-46.4" font-family="Times Roman,serif" font-size="14.00">expire_at :datetime</text>
<text text-anchor="start" x="275.5" y="-28.4" font-family="Times Roman,serif" font-size="14.00">created_at :datetime</text>
<text text-anchor="start" x="275.5" y="-10.4" font-family="Times Roman,serif" font-size="14.00">updated_at :datetime</text>
</g>
</g>
</svg>
